<?xml version="1.0" encoding="UTF-8"?>
<svg id="_Слой_1" data-name="Слой 1" xmlns="http://www.w3.org/2000/svg" viewBox="0 0 1080 834.89">
  <defs>
    <style>
      .cls-1 {
        fill: #8e1d1f;
      }
    </style>
  </defs>
  <path class="cls-1" d="M733.83,716.33c-.31-1.05-1.8-1.07-2.12-.02l-1.48,4.71c-.62,1.99-4.5,4.43-6.58,4.2-8.03-.87-6.14-21.94,4.32-39.47.1-.17.24-.3.41-.4l20.91-11.91c.26-.15.45-.4.53-.69l16.91-65.36c.11-.42-.03-.86-.36-1.13l-22.95-19.09c-.45-.37-.53-1.03-.19-1.5l52.4-73.32c.38-.54,1.15-.62,1.64-.18l28.21,25.12c.31.28.44.71.34,1.11l-6.88,26.16c-.09.33-.02.68.19.95l23.23,30.64c.26.34.3.8.1,1.18l-62.27,121.71c-.17.34-.5.56-.88.6l-42.28,4.22c-.53.05-1.02-.28-1.18-.79l-1.99-6.77Z"/>
  <path class="cls-1" d="M1045.92,507.83c-.23-.27-.42-.49-.65-.76l-66.24-26.69c-.26-.25-.49-.48-.75-.73l-51.71-120.01c-2.28-5.54-8.91-12.38-13.36-17.59.14-.7.2-1,.35-1.71l63.18-35.28c.67-.37,1.59-1.19,2.04-1.81l43.9-60.56c.64-.88,1.06-1.9,1.22-2.97,3.92-25.56,7.09-50.59,9.01-75.31,0-.65,0-1.19.11-1.84v-.11c.33-4.45.65-8.78.87-13.12.86-26.59-3.37-50.87-5.18-59.85-.51-2.53-.4-5.08.28-7.56l10.42-37.96,2.28-9.21c0-.22,0-.43-.11-.65l-12.79-33.39c-.32-.76-1.3-.97-1.84-.32l-28.94,42.39-18.6,27.35c-.95,1.4-1.55,3.01-1.73,4.7l-16.09,146.82c-.05.16-.13.4-.18.56-9.21,16.01-22.19,33.83-37.33,43.99l-50.41,33.82c-.34.05-.78.12-1.12.17l-47.33-13.83h-.54c-48.04,5.75-97.38,13.12-141.84,33.52-.09.07-.19.13-.28.2l-149.26,149.47c-.12.08-.23.16-.34.23l-48.57,21.25-22.12,8.89c-1.19.54-2.49-.22-2.82-1.41l-3.9-17.45c.33-.48.49-.69.82-1.17l48.94-6.31c.65-.11,1.09-.65.87-1.3l-.43-2.82c-.11-.54-.65-.97-1.19-.97l-50.69,5.09c-.4-.27-.72-.49-1.13-.76l-3.9-13.12c-.22-.54.11-1.09.65-1.3l50.41-19.84c.54-.22.76-.87.65-1.41l-1.19-3.36c-.22-.65-.87-.98-1.41-.76l-52.14,19.3c-.54-.21-.87-.34-1.41-.54l-12.04-22.99-.1-.54,1.3-13.05v-.17s-16.48-105.59-16.48-105.59c-.11-.97-1.3-1.3-1.95-.54l-63.6,74.21c-.32.12-.69.25-1.01.37l-24.93-4.01c-.33,0-.65-.21-.76-.65l-42.82-95.51c-.43-.87-1.73-.87-2.06.11l-40.54,114.69c0,.11-.11.22-.22.43l-26.45,25.91-.19.27-14.77,31.39c-.54.21-.86.34-1.4.55l-54.75-22.34c-1.84-.65-5.64,4.01-4.12,4.77l5.2,2.82q.11,0,.11.11l51.82,20.82c.54.22.87.98.54,1.52l-4.12,7.48c-.22.43-.54.65-.98.65l-63.09-2.38c-.65,0-1.09.43-1.19.98l-.43,3.25c-.11.65.43,1.19,1.08,1.3l62.98,3.47c.54,0,.98.43,1.09,1.08l.21,8.89c0,.54-.32.98-.76,1.09l-44.12,13.66c-.54.22-.87.65-.87,1.19l.54,3.58c0,.76.76,1.19,1.41.97l47.26-13.98c.41.15.79.28,1.2.43l28.19,41.52c.19.15.36.29.55.44l76.74,29.81c.87.43.87,1.63,0,2.06l-209.22,93.66-66.56,26.78-.22.22c-15.94,12.9-30.68,38.59-22.55,41.73l6.18,2.39c.11,0,.22.11.33.22,1.41,1.3,7.37,5.42,9.43,4.23l7.59-4.44c.33-.11.76-.11,1.09,0,21.57,11.49,37.94-9.76,54.64-15.61,62.88-22.44,129-27.97,192.64-46.29q.11-.11.22-.11l70.46-31.33c1.19-.54,2.17,1.19.97,1.95l-90.09,54.31-135.51,77.73c-15.07,8.78-48.67,2.17-58.21,50.62-.11.33,0,.76.33,1.09l6.83,5.31c.98.87,2.6-1.41,3.14-2.6l.87-1.84c.54-1.19,2.28-.76,2.17.54l-.43,5.31c0,.65.54,1.19,1.19,1.19l15.5-1.63c8.67-.76,23.85,3.58,31.44-2.28l21.68-16.59c.15-.08.39-.21.54-.3l159.24-57.59,143.53-53.01q.11-.11.22-.11l102.11-9.85.44-.12,151.95-70.82c.12-.1.23-.19.35-.29l90.84-122.93,1.67-.18,61.1,53.95c.16.07.31.14.48.21l125.28,13.45c.31.23.55.42.86.65l37.83,91.71c-.13.46-.22.78-.35,1.24l-16.57,12.21-.23.29c-3.37,8.57-7.79,21.42-8.34,29.96v.22c1.19,12.47,19.4,14.31,26.34,9.87.33-.22.54-.54.54-.87.32-1.95,1.41-9.54,2.28-15.29.11-.97,1.52-.97,1.52,0,.33.22.54.54.54.98l-.98,14.74c0,.65.54,1.19,1.19,1.19l29.57-3.03c.36-.27.64-.49,1-.76l22.22-56.91c.01-.14.03-.36.04-.5l-34.08-144.66ZM238.41,460.67c0,1.08-1.41,1.52-2.06.54l-11.49-17.99c-.33-.43-.22-1.08.22-1.41l12.14-9.54c.76-.65,1.84-.11,1.74.87l-.54,27.54ZM267.68,470.75c-.11.43-.65.76-1.09.65l-18.86-2.38c-.76-.11-1.19-.87-.87-1.63,6.39-13.44,7.05-23.31,5.09-39.68-.11-.76.54-1.41,1.3-1.3,9.76,2.06,20.38,6.61,26.34,12.36.33.32.43.76.22,1.19l-12.14,30.79ZM334.68,482.46c-7.37-1.3-17.45-4.55-26.78-8.56-.54-.33-.87-.98-.54-1.52,5.64-13.12,12.68-22.87,22.87-31.11.76-.54,1.74-.11,1.84.76l3.9,39.24c.11.65-.54,1.3-1.3,1.19ZM384.98,452.98c-7.8,16.58-19.62,28.29-37.83,29.92-.76.11-1.41-.65-1.19-1.3,3.58-15.5,2.93-28.83-1.52-43.15-.11-.76.33-1.41,1.09-1.41,15.72-.76,28.62,5.96,39.24,14.64.33.33.54.87.22,1.3Z"/>
</svg>